<svg width="134" height="134" viewBox="0 0 134 134" fill="none" xmlns="http://www.w3.org/2000/svg">
<g clip-path="url(#clip0_602_3665)">
<g filter="url(#filter0_d_602_3665)">
<path d="M23 95H33.8V73.4H46.76C56.6 73.4 64.12 65.8 64.12 56.12C64.12 46.52 56.6 39 46.76 39H23V95ZM45.8 48.44C50.36 48.44 53.24 51.8 53.24 56.28C53.24 60.76 50.36 64.2 45.8 64.2H33.8V48.44H45.8ZM110.969 53.64H100.569V57.24C96.9694 54.28 92.4094 52.52 87.5294 52.52C75.5294 52.52 65.7694 62.04 65.7694 73.96C65.7694 85.88 75.4494 95.4 87.5294 95.4C92.4094 95.4 96.8894 93.64 100.489 90.76V95.8C100.489 100.44 97.9294 103 92.9694 103H83.7694V111.8H95.3694C104.809 111.8 110.969 105.72 110.969 96.6V53.64ZM76.1694 73.96C76.1694 67.16 81.6894 61.64 88.4094 61.64C95.2094 61.64 100.649 67.08 100.649 73.96C100.649 80.76 95.2894 86.2 88.4094 86.2C81.6094 86.2 76.1694 80.76 76.1694 73.96Z" fill="#fafafa"/>
<path d="M23 95H19V99H23V95ZM33.8 95V99H37.8V95H33.8ZM33.8 73.4V69.4H29.8V73.4H33.8ZM23 39V35H19V39H23ZM33.8 64.2H29.8V68.2H33.8V64.2ZM33.8 48.44V44.44H29.8V48.44H33.8ZM23 99H33.8V91H23V99ZM37.8 95V73.4H29.8V95H37.8ZM33.8 77.4H46.76V69.4H33.8V77.4ZM46.76 77.4C58.8091 77.4 68.12 68.0091 68.12 56.12H60.12C60.12 63.5909 54.3909 69.4 46.76 69.4V77.4ZM68.12 56.12C68.12 44.2744 58.7725 35 46.76 35V43C54.4275 43 60.12 48.7656 60.12 56.12H68.12ZM46.76 35H23V43H46.76V35ZM19 39V95H27V39H19ZM45.8 52.44C47.0415 52.44 47.8077 52.8689 48.2884 53.3905C48.8013 53.9472 49.24 54.8922 49.24 56.28H57.24C57.24 53.1878 56.2387 50.2128 54.1716 47.9695C52.0723 45.6911 49.1185 44.44 45.8 44.44V52.44ZM49.24 56.28C49.24 57.6712 48.7986 58.6477 48.2693 59.2303C47.776 59.7733 47.0112 60.2 45.8 60.2V68.2C49.1488 68.2 52.104 66.9067 54.1907 64.6097C56.2414 62.3523 57.24 59.3688 57.24 56.28H49.24ZM45.8 60.2H33.8V68.2H45.8V60.2ZM37.8 64.2V48.44H29.8V64.2H37.8ZM33.8 52.44H45.8V44.44H33.8V52.44ZM110.969 53.64H114.969V49.64H110.969V53.64ZM100.569 53.64V49.64H96.5694V53.64H100.569ZM100.569 57.24L98.029 60.3297L104.569 65.7074V57.24H100.569ZM100.489 90.76H104.489V82.4375L97.9906 87.6365L100.489 90.76ZM83.7694 103V99H79.7694V103H83.7694ZM83.7694 111.8H79.7694V115.8H83.7694V111.8ZM110.969 49.64H100.569V57.64H110.969V49.64ZM96.5694 53.64V57.24H104.569V53.64H96.5694ZM103.11 54.1503C98.8326 50.6335 93.3848 48.52 87.5294 48.52V56.52C91.434 56.52 95.1062 57.9265 98.029 60.3297L103.11 54.1503ZM87.5294 48.52C73.3881 48.52 61.7694 59.7636 61.7694 73.96H69.7694C69.7694 64.3164 77.6706 56.52 87.5294 56.52V48.52ZM61.7694 73.96C61.7694 88.1469 73.2985 99.4 87.5294 99.4V91.4C77.6003 91.4 69.7694 83.6131 69.7694 73.96H61.7694ZM87.5294 99.4C93.3971 99.4 98.7435 97.2792 102.988 93.8835L97.9906 87.6365C95.0352 90.0008 91.4217 91.4 87.5294 91.4V99.4ZM96.4894 90.76V95.8H104.489V90.76H96.4894ZM96.4894 95.8C96.4894 97.402 96.0605 98.0208 95.8069 98.2663C95.5326 98.5319 94.8005 99 92.9694 99V107C96.0982 107 99.1261 106.188 101.372 104.014C103.638 101.819 104.489 98.838 104.489 95.8H96.4894ZM92.9694 99H83.7694V107H92.9694V99ZM79.7694 103V111.8H87.7694V103H79.7694ZM83.7694 115.8H95.3694V107.8H83.7694V115.8ZM95.3694 115.8C100.961 115.8 105.923 113.984 109.506 110.48C113.097 106.968 114.969 102.086 114.969 96.6H106.969C106.969 100.234 105.762 102.952 103.913 104.76C102.056 106.576 99.2182 107.8 95.3694 107.8V115.8ZM114.969 96.6V53.64H106.969V96.6H114.969ZM80.1694 73.96C80.1694 69.3522 83.9154 65.64 88.4094 65.64V57.64C79.4633 57.64 72.1694 64.9678 72.1694 73.96H80.1694ZM88.4094 65.64C92.9832 65.64 96.6494 69.2721 96.6494 73.96H104.649C104.649 64.8879 97.4355 57.64 88.4094 57.64V65.64ZM96.6494 73.96C96.6494 78.568 93.0632 82.2 88.4094 82.2V90.2C97.5156 90.2 104.649 82.952 104.649 73.96H96.6494ZM88.4094 82.2C83.8185 82.2 80.1694 78.5509 80.1694 73.96H72.1694C72.1694 82.9691 79.4002 90.2 88.4094 90.2V82.2Z" fill="#fafafa"/>
</g>
<g filter="url(#filter1_d_602_3665)">
<mask id="mask0_602_3665" style="mask-type:alpha" maskUnits="userSpaceOnUse" x="63" y="-6" width="78" height="78">
<rect x="80.7835" y="-3.55051" width="59.246" height="59.246" transform="rotate(15 80.7835 -3.55051)" fill="#FF1744" stroke="black" stroke-width="4"/>
</mask>
<g mask="url(#mask0_602_3665)">
<path d="M101.383 34.0256C103.125 34.4925 104.838 34.2672 106.4 33.3653C107.962 32.4633 109.014 31.0929 109.481 29.3504C109.947 27.6079 109.722 25.8955 108.82 24.3332C107.918 22.7709 106.548 21.7197 104.805 21.2528C103.063 20.7859 101.35 21.0111 99.7882 21.9131C98.226 22.815 97.1747 24.1854 96.7078 25.9279C96.2409 27.6704 96.4661 29.3829 97.3681 30.9451C98.2701 32.5074 99.6405 33.5587 101.383 34.0256ZM95.5925 55.6357C90.9008 48.6647 87.6684 42.5353 85.8346 37.2345C83.8757 31.5717 83.5275 26.9356 84.526 23.2095C86.1092 17.3006 89.2011 13.2804 93.7395 10.8992C98.4167 8.4452 103.148 7.89848 108.033 9.20736C112.918 10.5162 116.742 13.3554 119.566 17.8193C122.305 22.1507 122.973 27.1782 121.39 33.087C120.391 36.8132 117.772 40.6541 113.244 44.5787C109.005 48.2525 103.141 51.9445 95.5925 55.6357Z" fill="#FF1744" stroke="black" stroke-width="4"/>
</g>
</g>
</g>
<defs>
<filter id="filter0_d_602_3665" x="23" y="39" width="91.9694" height="76.8" filterUnits="userSpaceOnUse" color-interpolation-filters="sRGB">
<feFlood flood-opacity="0" result="BackgroundImageFix"/>
<feColorMatrix in="SourceAlpha" type="matrix" values="0 0 0 0 0 0 0 0 0 0 0 0 0 0 0 0 0 0 127 0" result="hardAlpha"/>
<feOffset dx="4" dy="4"/>
<feComposite in2="hardAlpha" operator="out"/>
<feColorMatrix type="matrix" values="0 0 0 0 0 0 0 0 0 0 0 0 0 0 0 0 0 0 1 0"/>
<feBlend mode="normal" in2="BackgroundImageFix" result="effect1_dropShadow_602_3665"/>
<feBlend mode="normal" in="SourceGraphic" in2="effect1_dropShadow_602_3665" result="shape"/>
</filter>
<filter id="filter1_d_602_3665" x="81.9834" y="6.51714" width="44.249" height="53.6675" filterUnits="userSpaceOnUse" color-interpolation-filters="sRGB">
<feFlood flood-opacity="0" result="BackgroundImageFix"/>
<feColorMatrix in="SourceAlpha" type="matrix" values="0 0 0 0 0 0 0 0 0 0 0 0 0 0 0 0 0 0 127 0" result="hardAlpha"/>
<feOffset dx="2" dy="2"/>
<feComposite in2="hardAlpha" operator="out"/>
<feColorMatrix type="matrix" values="0 0 0 0 0 0 0 0 0 0 0 0 0 0 0 0 0 0 1 0"/>
<feBlend mode="normal" in2="BackgroundImageFix" result="effect1_dropShadow_602_3665"/>
<feBlend mode="normal" in="SourceGraphic" in2="effect1_dropShadow_602_3665" result="shape"/>
</filter>
<clipPath id="clip0_602_3665">
<rect width="134" height="134" fill="white"/>
</clipPath>
</defs>
</svg>
